<svg width="184" height="46" viewBox="0 0 184 46" fill="none" xmlns="http://www.w3.org/2000/svg">
<path d="M3.30963 18.131L5.91673 28.1541C6.48635 30.345 7.01215 32.3934 7.38459 34.4309H7.50509C7.95421 32.4372 8.60051 30.3231 9.25776 28.1541L12.4783 18.131H15.4907L18.5469 27.9898C19.2809 30.3559 19.8505 32.4372 20.2996 34.4309H20.453C20.8334 32.2721 21.3344 30.1364 21.9537 28.0336L24.7689 18.1749H28.3181L21.9537 37.8924H18.6674L15.655 28.4828C14.9649 26.2919 14.3953 24.3311 13.9023 22.0088H13.8804C13.3865 24.2001 12.7684 26.3616 12.0292 28.4828L8.85246 37.8596H5.56619L-0.360035 18.131H3.30963Z" fill="#47585B"/>
<path d="M49.3392 27.8365C49.3392 35.1319 44.2893 38.3087 39.4804 38.3087C34.1348 38.3087 30.016 34.398 30.016 28.1541C30.016 21.5816 34.3429 17.6819 39.7981 17.6819C45.5053 17.6819 49.3392 21.8007 49.3392 27.8365ZM33.6857 28.0336C33.6857 32.3605 36.1723 35.6139 39.6776 35.6139C43.183 35.6139 45.6696 32.3934 45.6696 27.946C45.6696 24.605 44.0045 20.3657 39.7653 20.3657C35.526 20.3657 33.6857 24.2873 33.6857 28.0336Z" fill="#47585B"/>
<path d="M53.8743 24.2873C53.8743 21.965 53.8743 19.9056 53.71 18.131H56.8538L56.9743 21.9979H57.1387C57.4782 20.7919 58.1911 19.7245 59.1752 18.949C60.1593 18.1736 61.3638 17.73 62.6157 17.6819C62.9591 17.6782 63.3015 17.7187 63.6345 17.8024V21.1873C63.2347 21.1031 62.827 21.0627 62.4186 21.0668C59.8882 21.0668 58.0917 22.9837 57.6097 25.6675C57.4957 26.234 57.4333 26.8096 57.4235 27.3873V37.9034H53.8743V24.2873Z" fill="#47585B"/>
<path d="M67.3808 8.91855H70.9628V37.8596H67.3808V8.91855Z" fill="#47585B"/>
<path d="M94.0324 8.91855V32.7658C94.0324 34.5185 94.0324 36.5122 94.1967 37.8595H90.9762L90.8228 34.4309H90.7352C90.0957 35.6544 89.1222 36.6713 87.9277 37.3636C86.7333 38.0558 85.3669 38.3949 83.9874 38.3415C79.2223 38.3415 75.5527 34.3104 75.5527 28.3184C75.5527 21.7459 79.5838 17.7148 84.3927 17.7148C85.5645 17.6388 86.7353 17.8781 87.7833 18.4079C88.8313 18.9376 89.7182 19.7385 90.3518 20.7272H90.4285V8.91855H94.0324ZM90.4504 26.1604C90.4554 25.6518 90.4003 25.1444 90.2861 24.6488C90.029 23.4637 89.371 22.4035 88.4231 21.6472C87.4752 20.8909 86.2954 20.4847 85.0828 20.4971C81.3694 20.4971 79.1676 23.7834 79.1676 28.1651C79.1676 32.1524 81.1284 35.4606 84.9952 35.4606C86.2296 35.4567 87.4253 35.0293 88.3823 34.2497C89.3394 33.4701 89.9998 32.3856 90.2532 31.1775C90.387 30.655 90.4533 30.1175 90.4504 29.5782V26.1604Z" fill="#47585B"/>
<path d="M104.318 13.3988V18.131H109.456V20.8148H104.318V31.4513C104.318 33.9051 105.02 35.2853 107.013 35.2853C107.715 35.314 108.418 35.2327 109.094 35.0443L109.259 37.7281C108.239 38.1046 107.158 38.2867 106.071 38.2649C105.352 38.3015 104.634 38.1814 103.966 37.9128C103.299 37.6442 102.697 37.2335 102.204 36.7094C101.186 35.6139 100.813 33.9051 100.813 31.5828V20.8148H97.7569V18.131H100.813V14.5052L104.318 13.3988Z" fill="#FFBA08"/>
<path d="M113.498 24.2873C113.498 21.965 113.498 19.9056 113.334 18.131H116.478L116.598 21.9979H116.762C117.102 20.7919 117.815 19.7245 118.799 18.949C119.783 18.1736 120.988 17.73 122.24 17.6819C122.583 17.6782 122.925 17.7187 123.258 17.8024V21.1873C122.859 21.1031 122.451 21.0627 122.042 21.0668C119.512 21.0668 117.661 22.9837 117.233 25.6675C117.129 26.2202 117.074 26.7811 117.069 27.3435V37.8595H113.52L113.498 24.2873Z" fill="#FFBA08"/>
<path d="M130.992 12.5882C130.992 13.178 130.758 13.7436 130.341 14.1606C129.924 14.5776 129.358 14.8119 128.768 14.8119C128.178 14.8119 127.613 14.5776 127.196 14.1606C126.779 13.7436 126.545 13.178 126.545 12.5882C126.537 12.2913 126.59 11.9959 126.7 11.72C126.81 11.4442 126.975 11.1936 127.186 10.9836C127.396 10.7735 127.646 10.6084 127.922 10.4982C128.198 10.388 128.493 10.3351 128.79 10.3426C129.083 10.341 129.374 10.3984 129.645 10.5112C129.916 10.6241 130.161 10.7902 130.366 10.9996C130.572 11.209 130.733 11.4575 130.84 11.7304C130.948 12.0033 130.999 12.295 130.992 12.5882ZM126.994 37.8596V18.142H130.587V37.8596H126.994Z" fill="#FFBA08"/>
<path d="M136.568 24.5721C136.568 22.0417 136.48 20.0042 136.403 18.1311H139.624L139.777 21.5159H139.854C140.564 20.3 141.591 19.3005 142.827 18.6249C144.062 17.9494 145.458 17.6234 146.865 17.6819C151.63 17.6819 155.223 21.7131 155.223 27.705C155.223 34.8033 150.841 38.3087 146.251 38.3087C145.058 38.3613 143.871 38.1034 142.808 37.56C141.744 37.0166 140.839 36.2064 140.183 35.2086H140.095V45.9219H136.568V24.5721ZM140.106 29.8301C140.118 30.3232 140.173 30.8143 140.27 31.298C140.571 32.4969 141.263 33.5609 142.238 34.3211C143.212 35.0812 144.413 35.4939 145.649 35.4935C149.439 35.4935 151.641 32.3934 151.641 27.8255C151.641 23.8711 149.559 20.4972 145.769 20.4972C144.503 20.533 143.285 20.9881 142.306 21.791C141.326 22.5939 140.641 23.6993 140.358 24.9336C140.207 25.4091 140.123 25.903 140.106 26.4015V29.8301Z" fill="#FFBA08"/>
<path d="M-1.45546 35.2196C99.871 44.6402 159.462 18.131 159.462 18.131C159.462 18.131 117.562 47.9155 -3 42.1426" fill="#F5F8FA"/>
<path d="M100.857 32.8644C137.674 27.223 157.819 18.2406 157.819 18.2406C157.819 18.2406 137.006 32.481 102.391 37.0051" stroke="#FFBA08" stroke-miterlimit="10"/>
<path d="M5.02944 35.9864C36.9868 38.5918 69.137 37.5444 100.857 32.8644" stroke="#47585B" stroke-miterlimit="10"/>
<path d="M174.316 22.4908C173.746 18.9197 173.22 15.5458 172.662 12.0296L171.764 12.7635C169.763 14.5276 167.463 15.9189 164.972 16.8713C164.58 17.0431 164.152 17.115 163.726 17.0806C163.299 17.0462 162.888 16.9065 162.529 16.6741C160.985 15.6883 159.385 14.7681 157.797 13.826C158.035 13.4782 158.368 13.2063 158.757 13.0431C159.145 12.8799 159.573 12.8323 159.988 12.9059C161.239 13.0392 162.497 13.1014 163.756 13.0921C164.151 13.0859 164.534 12.9556 164.852 12.7197C169.233 8.99524 173.615 5.2562 177.997 1.50257C179.135 0.500285 180.61 -0.0356299 182.126 0.00184023C183.485 0.00184023 184.054 0.900085 183.474 2.19268C183.153 2.84072 182.71 3.4209 182.17 3.90154C180.888 5.07363 179.552 6.18001 178.216 7.28638C178.042 7.41393 177.899 7.57832 177.797 7.76773C177.695 7.95714 177.636 8.16685 177.624 8.3818C177.339 12.0843 176.989 15.7868 176.704 19.4894C176.701 19.8643 176.607 20.233 176.43 20.5633C176.252 20.8936 175.997 21.1755 175.685 21.3844C175.21 21.7292 174.753 22.0985 174.316 22.4908Z" fill="#47585B"/>
<path d="M162.244 6.92489C163.263 6.04855 163.975 4.90932 165.618 5.16126C167.261 5.41321 168.904 5.42416 170.635 5.54466L171.194 5.62134C169.945 6.71676 168.806 7.63691 167.656 8.58992C167.59 8.63755 167.515 8.67093 167.436 8.68791C167.357 8.70489 167.275 8.7051 167.196 8.68851C165.662 8.20653 164.128 7.71359 162.606 7.2097C162.496 7.17683 162.42 7.06729 162.244 6.92489Z" fill="#47585B"/>
</svg>
